<?xml version="1.0" encoding="UTF-8"?>
<svg id="a" data-name="Layer_1" xmlns="http://www.w3.org/2000/svg" viewBox="0 0 378 97">
  <path d="M219,34.5c0-4.14-1.68-7.89-4.39-10.61,0-3.84-1.46-7.68-4.39-10.61s-6.77-4.39-10.61-4.39c-2.71-2.71-6.46-4.39-10.61-4.39s-7.89,1.68-10.61,4.39c-3.84,0-7.68,1.46-10.61,4.39-2.93,2.93-4.39,6.77-4.39,10.61-2.71,2.71-4.39,6.46-4.39,10.61s1.68,7.89,4.39,10.61c0,3.84,1.46,7.68,4.39,10.61,2.83,2.83,6.5,4.28,10.2,4.38,2.72,2.72,6.47,4.4,10.62,4.4s7.63-1.57,10.32-4.12c.13,0,.27,0,.4,0,3.84,0,7.68-1.46,10.61-4.39,2.93-2.93,4.4-6.78,4.39-10.62,2.88-2.73,4.68-6.59,4.68-10.88ZM208.18,33.28c-2.63-1.93-5.74-2.89-8.85-2.89,0,0,0,0-.01,0,2.36-2.24,4-5.23,4.51-8.59.06,0,.12,0,.17,0,3.16,0,6.05,1.16,8.27,3.07-.22,2.92-1.44,5.79-3.68,8.02-.14.14-.28.27-.42.4ZM208.31,36.4c2.22,2.22,3.44,5.07,3.67,7.98-2.18,1.77-4.96,2.83-7.99,2.83-.19,0-.38,0-.57-.01-.5-3.22-2.02-6.11-4.23-8.31.14,0,.27,0,.41,0,2.99,0,5.97-.89,8.53-2.66.06.06.12.11.18.17ZM201.31,49.5c0,3.28-1.25,6.27-3.3,8.53-2.9-.3-5.59-1.57-7.68-3.66-.03-.03-.06-.06-.08-.09,2.09-2.69,3.14-5.94,3.14-9.18,2.11,2.11,4.85,3.59,7.91,4.15,0,.08,0,.16,0,.25ZM178.99,57.8c-1.93-2.23-3.1-5.13-3.1-8.3,0-.04,0-.08,0-.12,3.25-.41,6.17-1.86,8.43-4,0,3.12.96,6.24,2.89,8.87-2.24,2.16-5.13,3.41-8.23,3.55ZM169.53,36c2.52,1.85,5.49,2.81,8.47,2.89-2.21,2.2-3.73,5.09-4.23,8.32-3.07-.05-5.88-1.2-8.05-3.07.23-3.03,1.51-5.84,3.68-8.01.04-.04.08-.08.13-.12ZM169.41,32.88c-2.17-2.17-3.45-4.99-3.68-8.01,2.23-1.91,5.12-3.08,8.28-3.08.06,0,.12,0,.17,0,.49,3.22,2.02,6.11,4.22,8.31-3.12,0-6.23.97-8.86,2.89-.04-.04-.09-.08-.13-.12ZM176.29,19.5c0-3.16,1.16-6.05,3.08-8.28,3.03.23,5.84,1.51,8.01,3.68.04.04.08.08.12.13-1.93,2.63-2.89,5.74-2.89,8.86-2.2-2.2-5.09-3.72-8.31-4.22,0-.06,0-.12,0-.17ZM198.63,11.22c1.91,2.23,3.08,5.12,3.08,8.28,0,.06,0,.12,0,.17-3.22.49-6.11,2.02-8.31,4.22,0-3.12-.96-6.23-2.89-8.86.04-.04.08-.09.12-.13,2.17-2.17,4.99-3.45,8.01-3.68ZM185.06,40.75c-1.85,3.26-5.1,5.63-8.93,6.28.75-3.79,3.19-6.97,6.49-8.74.89-.26,1.76-.61,2.59-1.04.41-.11.82-.2,1.24-.28-.08.42-.19.83-.31,1.23-.45.82-.81,1.67-1.1,2.55ZM191.55,31.95c1.01-4.97,4.94-8.89,9.91-9.91-1.01,4.97-4.94,8.89-9.91,9.91ZM189,30.9c-.44-.66-.81-1.36-1.12-2.09-.02-.06-.04-.11-.07-.17-.6-1.49-.91-3.09-.91-4.75,0-2.53.73-4.95,2.1-7.01,2.8,4.23,2.8,9.78,0,14.01ZM186.45,31.95c-4.97-1.01-8.89-4.94-9.91-9.91,4.97,1.01,8.89,4.94,9.91,9.91ZM178.39,32.4c1.65,0,3.26.32,4.75.92.05.02.11.04.16.07.73.31,1.43.68,2.1,1.12-.33.22-.66.42-1,.6-.92.27-1.8.62-2.63,1.05-1.09.3-2.22.45-3.37.45-2.53,0-4.95-.74-7.01-2.1,2.06-1.37,4.48-2.1,7.01-2.1ZM187.17,41.68c.44-.81.81-1.67,1.1-2.57.21-.37.44-.73.68-1.07,2.91,4.35,2.85,10.12-.2,14.41-2.15-3.21-2.68-7.18-1.59-10.77ZM191.57,37.14c4.74,1.14,8.45,4.93,9.46,9.71-4.74-1.14-8.45-4.93-9.46-9.71ZM199.61,36.6c-2.5,0-4.88-.72-6.93-2.05,1.98-1.22,4.26-1.87,6.65-1.87s4.88.72,6.93,2.05c-1.98,1.22-4.26,1.87-6.65,1.87ZM208.59,14.91c1.97,1.97,3.16,4.44,3.56,7.01-2.35-1.52-5.15-2.41-8.15-2.41,0-3.01-.89-5.81-2.42-8.16,2.64.41,5.08,1.64,7.01,3.57ZM196.47,9.23c-2.74.58-5.34,1.93-7.47,4.06-2.13-2.13-4.73-3.48-7.47-4.06,2.1-1.53,4.68-2.44,7.47-2.44s5.37.91,7.47,2.44ZM169.41,14.91c1.93-1.93,4.37-3.16,7.01-3.57-1.53,2.35-2.42,5.15-2.42,8.16-3.01,0-5.81.89-8.16,2.42.41-2.64,1.64-5.08,3.57-7.01ZM161.29,34.5c0-2.79.91-5.37,2.44-7.47.58,2.74,1.93,5.34,4.06,7.47-2.13,2.13-3.48,4.73-4.06,7.47-1.53-2.1-2.44-4.68-2.44-7.47ZM169.41,54.09c-1.93-1.93-3.16-4.37-3.57-7.01,2.25,1.46,4.9,2.33,7.76,2.41,0,0,0,0,0,.01,0,2.98.87,5.75,2.37,8.09-2.47-.47-4.75-1.67-6.56-3.49ZM188.6,62.21c-2.75,0-5.3-.88-7.38-2.37,2.73-.52,5.34-1.81,7.49-3.85,0,0,0,0,0,0,2.03,2.02,4.49,3.35,7.08,3.97-2.05,1.41-4.53,2.24-7.2,2.24ZM208.31,54.38c-2.01,2.01-4.57,3.26-7.35,3.61,1.66-2.41,2.64-5.34,2.64-8.49,0,0,0,0,0-.01.13,0,.27.01.4.01,2.9,0,5.6-.82,7.89-2.24-.38,2.61-1.58,5.12-3.58,7.12ZM209.93,34.78s0,0,0,0c.1-.09.19-.18.29-.27,2.13-2.13,3.48-4.73,4.06-7.47,1.53,2.1,2.44,4.68,2.44,7.47,0,2.95-1.01,5.66-2.7,7.82-.57-2.76-1.93-5.4-4.07-7.54Z" fill="#e6e6e6"/>
  <g>
    <path d="M88.13,86.22c-1.76,1.85-3.93,3.02-6.59,3.02-4.42,0-7.9-3.29-7.9-8.48s3.79-9.2,8.84-9.2c2.17,0,3.97.59,5.64,1.62v-8.12c0-.63.54-1.13,1.13-1.13.63,0,1.13.5,1.13,1.13v23.05c0,.63-.5,1.13-1.13,1.13-.59,0-1.13-.54-1.13-1.13v-1.89ZM88.13,75.89c-1.67-1.31-3.38-2.08-5.64-2.08-3.79,0-6.59,2.93-6.59,6.95,0,3.7,2.39,6.23,5.64,6.23,3.02,0,5.05-1.71,6.59-4.2v-6.9Z" fill="#e6e6e6"/>
    <path d="M96.37,72.69c0-.63.54-1.13,1.13-1.13.63,0,1.13.5,1.13,1.13v2.66c2.35-2.48,5.1-3.74,7.58-3.74.63,0,1.08.45,1.08,1.04s-.41,1.08-.99,1.17c-3.52.45-5.77,2.3-7.67,5.19v9.11c0,.63-.5,1.13-1.13,1.13-.59,0-1.13-.54-1.13-1.13v-15.43Z" fill="#e6e6e6"/>
    <path d="M116.26,71.56c4.74,0,7.31,3.38,7.31,6.05,0,2.17-1.08,3.97-4.83,3.97h-8.84c.45,3.61,3.38,5.41,7.31,5.41,1.49,0,2.8-.32,3.47-.54.63-.23.77-.27.9-.27.59,0,1.13.54,1.13,1.13,0,.45-.27.86-.72,1.04-1.26.5-3.02.9-4.78.9-5.77,0-9.61-3.11-9.61-8.62s3.88-9.07,8.66-9.07ZM118.79,79.32c1.8,0,2.57-.63,2.57-1.71,0-1.85-2.03-3.79-5.1-3.79s-5.77,2.21-6.32,5.5h8.84Z" fill="#e6e6e6"/>
    <path d="M132.18,89.24c-4.2,0-5.5-2.75-5.5-4.78,0-1.44.5-2.84,1.58-3.88,1.49-1.4,3.97-2.48,7.67-2.48.99,0,1.99.05,3.07.14-.23-2.71-1.76-4.42-4.87-4.42-1.22,0-2.62.27-3.29.5-.36.14-.72.23-.86.23-.59,0-1.17-.54-1.17-1.08,0-.5.27-.95.77-1.13,1.04-.32,2.93-.77,4.56-.77,4.92,0,7.17,2.98,7.17,7.31v4.11c0,2.08.45,3.34,1.35,4.33.23.23.32.5.32.77,0,.63-.54,1.13-1.13,1.13-.32,0-.59-.14-.81-.36-.68-.72-1.17-1.58-1.53-2.62-2.03,1.94-4.51,3.02-7.31,3.02ZM139.04,80.49c-1.13-.09-2.12-.14-3.11-.14-2.89,0-4.92.63-6.05,1.76-.72.72-.95,1.53-.95,2.35,0,1.22,1.04,2.53,3.25,2.53,2.57,0,4.96-1.13,6.86-3.56v-2.93Z" fill="#e6e6e6"/>
    <path d="M171.6,78.64c0-3.56-1.58-4.83-3.79-4.83s-4.42,1.44-6.14,3.34v10.96c0,.63-.5,1.13-1.13,1.13-.59,0-1.13-.54-1.13-1.13v-9.47c0-3.56-1.58-4.83-3.79-4.83s-4.47,1.58-6.23,3.47v10.83c0,.63-.5,1.13-1.13,1.13-.59,0-1.13-.54-1.13-1.13v-15.43c0-.63.54-1.13,1.13-1.13.63,0,1.13.5,1.13,1.13v1.53c1.9-1.58,4.06-2.66,6.23-2.66,2.35,0,4.38.68,5.41,3.11,2.03-1.85,4.42-3.11,6.77-3.11,3.29,0,6.05,1.35,6.05,7.08v9.47c0,.63-.5,1.13-1.13,1.13-.59,0-1.13-.54-1.13-1.13v-9.47Z" fill="#e6e6e6"/>
    <path d="M181.17,80.81c0,3.56,2.66,6.18,7.22,6.18,1.67,0,2.98-.32,3.7-.59.63-.23.77-.27.9-.27.59,0,1.13.54,1.13,1.13,0,.45-.27.86-.72,1.04-1.35.54-2.98.95-5.01.95-6.18,0-9.47-3.79-9.47-8.44,0-5.32,3.47-9.25,9.52-9.25,1.44,0,3.07.27,4.38.72.5.18.77.63.77,1.13,0,.54-.59,1.08-1.17,1.08-.14,0-.32-.05-.81-.18-1.04-.32-2.07-.5-3.16-.5-4.6,0-7.26,2.93-7.26,6.99Z" fill="#e6e6e6"/>
    <path d="M202.87,89.24c-4.2,0-5.5-2.75-5.5-4.78,0-1.44.5-2.84,1.58-3.88,1.49-1.4,3.97-2.48,7.67-2.48.99,0,1.99.05,3.07.14-.23-2.71-1.76-4.42-4.87-4.42-1.22,0-2.62.27-3.29.5-.36.14-.72.23-.86.23-.59,0-1.17-.54-1.17-1.08,0-.5.27-.95.77-1.13,1.04-.32,2.93-.77,4.56-.77,4.92,0,7.17,2.98,7.17,7.31v4.11c0,2.08.45,3.34,1.35,4.33.23.23.32.5.32.77,0,.63-.54,1.13-1.13,1.13-.32,0-.59-.14-.81-.36-.68-.72-1.17-1.58-1.53-2.62-2.03,1.94-4.51,3.02-7.31,3.02ZM209.72,80.49c-1.13-.09-2.12-.14-3.11-.14-2.89,0-4.92.63-6.05,1.76-.72.72-.95,1.53-.95,2.35,0,1.22,1.04,2.53,3.25,2.53,2.57,0,4.96-1.13,6.86-3.56v-2.93Z" fill="#e6e6e6"/>
    <path d="M218.93,73.81h-2.84c-.59,0-1.13-.54-1.13-1.13,0-.63.54-1.13,1.13-1.13h2.84v-4.56c0-.63.54-1.13,1.13-1.13.63,0,1.13.5,1.13,1.13v4.56h6c.63,0,1.13.5,1.13,1.13,0,.59-.5,1.13-1.13,1.13h-6v9.02c0,2.75,1.85,4.15,5.41,4.15.63,0,1.13.54,1.13,1.13,0,.63-.54,1.13-1.13,1.13-5.55,0-7.67-2.48-7.67-6.41v-9.02Z" fill="#e6e6e6"/>
    <path d="M233.27,80.81c0,3.56,2.66,6.18,7.22,6.18,1.67,0,2.98-.32,3.7-.59.63-.23.77-.27.9-.27.59,0,1.13.54,1.13,1.13,0,.45-.27.86-.72,1.04-1.35.54-2.98.95-5.01.95-6.18,0-9.47-3.79-9.47-8.44,0-5.32,3.47-9.25,9.52-9.25,1.44,0,3.07.27,4.38.72.5.18.77.63.77,1.13,0,.54-.59,1.08-1.17,1.08-.14,0-.32-.05-.81-.18-1.04-.32-2.08-.5-3.16-.5-4.6,0-7.26,2.93-7.26,6.99Z" fill="#e6e6e6"/>
    <path d="M264.57,79.09c0-3.7-1.53-5.28-3.93-5.28-2.53,0-4.87,1.58-6.77,3.47v10.83c0,.63-.5,1.13-1.13,1.13-.59,0-1.13-.54-1.13-1.13v-23.05c0-.63.54-1.13,1.13-1.13.63,0,1.13.5,1.13,1.13v9.25c2.03-1.58,4.24-2.75,6.77-2.75,3.38,0,6.18,1.76,6.18,7.53v9.02c0,.63-.5,1.13-1.13,1.13-.59,0-1.13-.54-1.13-1.13v-9.02Z" fill="#e6e6e6"/>
    <path d="M280.41,71.56c4.74,0,7.31,3.38,7.31,6.05,0,2.17-1.08,3.97-4.83,3.97h-8.84c.45,3.61,3.38,5.41,7.31,5.41,1.49,0,2.8-.32,3.47-.54.63-.23.77-.27.9-.27.59,0,1.13.54,1.13,1.13,0,.45-.27.86-.72,1.04-1.26.5-3.02.9-4.78.9-5.77,0-9.61-3.11-9.61-8.62s3.88-9.07,8.66-9.07ZM282.93,79.32c1.8,0,2.57-.63,2.57-1.71,0-1.85-2.03-3.79-5.1-3.79s-5.77,2.21-6.32,5.5h8.84Z" fill="#e6e6e6"/>
    <path d="M293.44,72.69c0-.63.54-1.13,1.13-1.13.63,0,1.13.5,1.13,1.13v2.66c2.35-2.48,5.1-3.74,7.58-3.74.63,0,1.08.45,1.08,1.04s-.41,1.08-.99,1.17c-3.52.45-5.77,2.3-7.67,5.19v9.11c0,.63-.5,1.13-1.13,1.13-.59,0-1.13-.54-1.13-1.13v-15.43Z" fill="#e6e6e6"/>
  </g>
</svg>